<svg width="32" height="20" viewBox="0 0 32 20" fill="none" xmlns="http://www.w3.org/2000/svg">
<path d="M20.3267 2.11414H11.6738V17.6636H20.3267V2.11414Z" fill="#FF5F00"/>
<path d="M12.2231 9.88898C12.2217 8.39146 12.5611 6.91325 13.2154 5.56627C13.8698 4.21928 14.8221 3.03883 16.0001 2.11427C14.5413 0.967596 12.7893 0.254498 10.9443 0.0564787C9.09937 -0.141541 7.23593 0.183502 5.56699 0.994468C3.89805 1.80544 2.49094 3.0696 1.5065 4.64247C0.522058 6.21534 0 8.03344 0 9.88898C0 11.7445 0.522058 13.5626 1.5065 15.1355C2.49094 16.7084 3.89805 17.9725 5.56699 18.7835C7.23593 19.5945 9.09937 19.9195 10.9443 19.7215C12.7893 19.5235 14.5413 18.8104 16.0001 17.6637C14.8221 16.7391 13.8698 15.5587 13.2155 14.2117C12.5611 12.8647 12.2217 11.3865 12.2231 9.88898V9.88898Z" fill="#EB001B"/>
<path d="M32.0001 9.88899C32.0002 11.7445 31.4782 13.5626 30.4938 15.1355C29.5094 16.7083 28.1023 17.9725 26.4334 18.7835C24.7645 19.5945 22.9011 19.9195 21.0562 19.7215C19.2113 19.5235 17.4593 18.8104 16.0005 17.6637C17.1775 16.7382 18.129 15.5576 18.7833 14.2108C19.4375 12.864 19.7775 11.3863 19.7775 9.88899C19.7775 8.3917 19.4375 6.91396 18.7833 5.56719C18.129 4.22041 17.1775 3.03977 16.0005 2.11427C17.4593 0.9676 19.2113 0.254494 21.0562 0.0564763C22.9011 -0.141541 24.7645 0.183516 26.4334 0.994491C28.1023 1.80547 29.5094 3.06964 30.4938 4.64251C31.4782 6.21538 32.0002 8.03347 32.0001 9.88899V9.88899Z" fill="#F79E1B"/>
<path d="M31.0555 16.0166V15.6983H31.1838V15.6334H30.8569V15.6983H30.9854V16.0166H31.0555ZM31.6902 16.0166V15.6328H31.59L31.4747 15.8968L31.3594 15.6328H31.2591V16.0166H31.3299V15.7271L31.438 15.9767H31.5114L31.6195 15.7265V16.0166H31.6902Z" fill="#F79E1B"/>
</svg>
