<svg width="224" height="224" viewBox="0 0 224 224" fill="none" xmlns="http://www.w3.org/2000/svg">
<rect width="224" height="224" fill="white"/>
<path fill-rule="evenodd" clip-rule="evenodd" d="M42 54.3816L63.8682 75.7499C65.6454 73.9524 68.692 71.7196 70.2533 70.6965C79.0607 64.8895 89.3435 62.0665 100.008 62.5372C125.038 63.636 145.867 83.9555 147.429 108.793L178.031 106.892C176.8 87.3212 168.271 68.8844 154.015 54.9779C139.764 41.0787 121.064 32.9463 101.361 32.0817C100.135 32.0268 98.9125 32 97.6934 32C81.8117 32.0012 66.5493 36.5583 53.3928 45.2334C52.7195 45.6712 46.679 49.6453 42 54.3816Z" fill="url(#paint0_linear)"/>
<path fill-rule="evenodd" clip-rule="evenodd" d="M147.428 108.793C148.298 122.654 143.541 135.83 134.032 145.893V145.893C124.516 155.966 111.622 161.514 97.728 161.514V161.514V192C119.849 192 141.229 182.803 156.38 166.767V166.767C171.745 150.506 179.434 129.242 178.03 106.892V106.892L147.428 108.793Z" fill="url(#paint1_linear)"/>
<path fill-rule="evenodd" clip-rule="evenodd" d="M96.9944 192H97.9692V161.514H96.9944C86.7888 161.514 77.8588 154.376 76.2227 144.914C75.0428 138.098 77.9201 132.786 79.7415 130.227L54.7065 112.625C46.83 123.698 43.7405 136.999 46.0021 150.082C50.2065 174.37 71.6516 192 96.9944 192Z" fill="url(#paint2_linear)"/>
<path fill-rule="evenodd" clip-rule="evenodd" d="M79.5453 130.495C88.9132 117.913 103.301 110.696 119.02 110.696C120.688 110.696 122.367 110.779 123.932 110.935C147.621 113.427 169.562 124.16 185.711 141.158L208 120.225C186.83 97.9399 158.118 83.8749 127.078 80.6104C124.419 80.3458 121.708 80.2104 119.02 80.2104C93.8571 80.2104 69.693 92.4963 54.7065 112.626L79.5453 130.495Z" fill="url(#paint3_linear)"/>
<defs>
<linearGradient id="paint0_linear" x1="57.9116" y1="61.4783" x2="70.9432" y2="122.095" gradientUnits="userSpaceOnUse">
<stop stop-color="#88E766"/>
<stop offset="1" stop-color="#63DA90"/>
</linearGradient>
<linearGradient id="paint1_linear" x1="145.908" y1="87.6097" x2="82.0625" y2="139.845" gradientUnits="userSpaceOnUse">
<stop stop-color="#63DA90"/>
<stop offset="1" stop-color="#47D0AF"/>
</linearGradient>
<linearGradient id="paint2_linear" x1="97.0249" y1="151.722" x2="68.987" y2="136.163" gradientUnits="userSpaceOnUse">
<stop stop-color="#47D0AF"/>
<stop offset="1" stop-color="#1FC2DD"/>
</linearGradient>
<linearGradient id="paint3_linear" x1="73.5943" y1="147.36" x2="168.986" y2="190.893" gradientUnits="userSpaceOnUse">
<stop stop-color="#1FC2DD"/>
<stop offset="1" stop-color="#00B7FF"/>
</linearGradient>
</defs>
</svg>
