<svg width="106" height="26" viewBox="0 0 106 26" fill="none" xmlns="http://www.w3.org/2000/svg">
<g clip-path="url(#clip0_3103_363)">
<path d="M65.9652 6.20115C65.139 6.20115 64.3467 5.87295 63.7625 5.28876C63.1783 4.70456 62.8501 3.91223 62.8501 3.08605C62.8501 2.25987 63.1783 1.46753 63.7625 0.883339C64.3467 0.299145 65.139 -0.0290527 65.9652 -0.0290527C66.7914 -0.0290527 67.5837 0.299145 68.1679 0.883339C68.7521 1.46753 69.0803 2.25987 69.0803 3.08605C69.0803 3.91223 68.7521 4.70456 68.1679 5.28876C67.5837 5.87295 66.7914 6.20115 65.9652 6.20115ZM65.9652 1.32659C65.4909 1.32659 65.0361 1.515 64.7007 1.85037C64.3653 2.18575 64.1769 2.64061 64.1769 3.11489C64.1769 4.09557 64.9845 4.90319 65.9652 4.90319C66.9459 4.90319 67.7535 4.09557 67.7535 3.11489C67.7535 2.10537 66.9459 1.32659 65.9652 1.32659Z" fill="#00A9E0"/>
<path d="M3.17279 6.17255C3.17279 3.14398 5.13415 0.576904 9.20109 0.576904C10.0664 0.576904 11.0471 0.692278 12.1431 0.95187V4.78806C11.422 4.47078 10.701 4.26888 10.0952 4.26888C8.71075 4.26888 8.0185 5.04765 8.0185 6.4033V7.26861H11.8259V10.6145H8.04735V25.0939H3.17279V10.6433H0V7.26861H3.17279V6.17255ZM36.3429 16.8735C36.3429 19.7867 37.612 21.2866 40.006 21.2866C42.1404 21.2866 43.698 19.8444 43.698 16.1813C43.698 12.5181 42.1404 11.076 40.006 11.076C39.2272 11.076 38.5638 11.249 38.0446 11.5951V7.7301C38.9099 7.35514 39.9483 7.03786 40.9867 7.03786C45.3709 7.03786 48.7167 9.46071 48.7167 16.0947C48.7167 22.2384 45.4863 25.3247 40.7271 25.3247C38.7946 25.3247 37.237 24.4882 36.3717 23.3633V25.0939H31.4971V1.21146H36.3429V16.8735ZM56.0718 25.1228H51.1973V7.26861H55.9853V10.4414C57.139 7.96085 59.2158 6.8648 61.0041 6.8648L61.8405 6.95133V12.2874C61.2925 12.1143 60.7156 11.9989 60.1965 11.9989C57.9755 11.9989 56.1007 13.4988 56.1007 16.3543V25.1228H56.0718ZM63.5423 25.1228V7.26861H68.4169V25.0939H63.5423V25.1228ZM87.1652 18.3734C86.6171 22.9883 83.5886 25.3535 79.1178 25.3535C74.0702 25.3535 70.7243 22.3249 70.7243 16.2678C70.7243 10.2395 74.2433 7.03786 79.2909 7.03786C83.6463 7.03786 86.6748 9.40303 87.1075 14.1334H82.2041C81.9156 11.9124 80.8484 11.076 79.2044 11.076C77.0988 11.076 75.7143 12.547 75.7143 16.2101C75.7143 19.8155 77.1276 21.3154 79.1467 21.3154C80.7042 21.3154 81.9156 20.5078 82.2906 18.3734H87.1652ZM94.2318 25.1228H89.3573V1.21146H94.2318V25.1228ZM99.539 15.2294L106 25.1228H100.376L94.2607 15.864L100.029 7.29745H105.164L99.539 15.2294ZM21.1135 7.0667C16.2389 7.0667 13.3834 9.54725 13.3834 13.4988H17.9984C17.9984 12.4604 18.5464 10.9894 20.9404 10.9894C22.7576 10.9894 23.6517 11.8836 23.6517 13.3546V18.6041C23.6517 20.3924 22.4403 21.7769 20.4212 21.7769C18.7483 21.7769 18.0272 20.6809 18.0272 19.8732C18.0272 19.1233 18.4599 18.5176 19.354 18.1138L21.8346 17.1331V13.7296L17.9407 14.941C15.3448 15.7198 12.9796 17.0466 12.9796 20.277C12.9796 23.2479 15.3159 25.3247 18.6618 25.3247C21.5461 25.3247 23.0748 23.9113 23.6517 23.1614V25.0939H28.5551V12.9508C28.5839 8.97038 25.7861 7.0667 21.1135 7.0667Z" fill="white"/>
</g>
<defs>
<clipPath id="clip0_3103_363">
<rect width="106" height="25.3246" fill="white"/>
</clipPath>
</defs>
</svg>
