<svg width="126" height="24" viewBox="0 0 126 24" fill="none" xmlns="http://www.w3.org/2000/svg">
<path fill-rule="evenodd" clip-rule="evenodd" d="M117.482 8.33654C116.961 8.57911 116.554 8.89774 116.261 9.29298C115.968 9.68823 115.777 10.0738 115.685 10.4513H122.296C122.077 9.64314 121.67 9.02801 121.075 8.60594C120.481 8.18414 119.809 7.9731 119.06 7.9731C118.529 7.9731 118.003 8.09425 117.482 8.33654ZM126 12.9567H115.575C115.667 13.4056 115.845 13.8766 116.11 14.3709C116.375 14.8646 116.773 15.2731 117.303 15.5961C117.834 15.9198 118.401 16.081 119.004 16.081C119.9 16.081 120.609 15.9242 121.131 15.6097C121.652 15.2958 122.077 14.8599 122.406 14.3034L125.643 14.9766C125.058 16.3415 124.185 17.3743 123.024 18.0744C121.862 18.775 120.522 19.1249 119.004 19.1249C118.053 19.1249 117.148 18.9542 116.289 18.6135C115.429 18.2721 114.679 17.7829 114.039 17.145C113.399 16.5075 112.896 15.7488 112.53 14.869C112.164 13.9889 111.982 13.0371 111.982 12.0135C111.982 10.9898 112.164 10.0384 112.53 9.15826C112.896 8.27843 113.404 7.51947 114.052 6.88193C114.702 6.24467 115.461 5.75068 116.33 5.40052C117.198 5.05036 118.108 4.875 119.06 4.875C119.955 4.875 120.82 5.04123 121.652 5.37341C122.484 5.70587 123.22 6.1769 123.86 6.78761C124.5 7.39832 125.008 8.1299 125.383 8.98318C125.757 9.8359 125.963 10.7567 126 11.7441V12.9567Z" fill="#00466E"/>
<path fill-rule="evenodd" clip-rule="evenodd" d="M105.591 18.7212H101.751L96.0446 5.25214H99.9404L103.671 14.384L107.402 5.25214H111.298L105.591 18.7212Z" fill="#00466E"/>
<path fill-rule="evenodd" clip-rule="evenodd" d="M87.9728 18.7212H84.2634V12.1608C84.255 11.7193 84.2874 9.09977 86.1949 7.16613C87.0562 6.29294 88.6367 5.25214 91.2771 5.25214H94.0366V8.75514H91.2771C90.185 8.75514 89.3941 9.01873 88.8589 9.56139C87.9798 10.4523 87.9714 12.0665 87.9717 12.0814C87.9722 12.1005 87.9728 12.1198 87.9728 12.1392V18.7212Z" fill="#00466E"/>
<path fill-rule="evenodd" clip-rule="evenodd" d="M73.273 8.33654C72.7519 8.57911 72.3451 8.89774 72.0522 9.29298C71.7598 9.68823 71.568 10.0738 71.4764 10.4513H78.0876C77.8682 9.64314 77.4609 9.02801 76.8668 8.60594C76.2725 8.18414 75.6004 7.9731 74.8503 7.9731C74.3205 7.9731 73.7946 8.09425 73.273 8.33654ZM81.7913 12.9567H71.3663C71.4581 13.4056 71.6361 13.8766 71.9015 14.3709C72.1668 14.8646 72.5645 15.2731 73.0949 15.5961C73.625 15.9198 74.1923 16.081 74.7954 16.081C75.6917 16.081 76.4006 15.9242 76.922 15.6097C77.4431 15.2958 77.8682 14.8599 78.1974 14.3034L81.4347 14.9766C80.8491 16.3415 79.9759 17.3743 78.8149 18.0744C77.6535 18.775 76.3136 19.1249 74.7954 19.1249C73.8445 19.1249 72.9392 18.9542 72.0801 18.6135C71.2204 18.2721 70.4703 17.7829 69.8303 17.145C69.1904 16.5075 68.6876 15.7488 68.3214 14.869C67.9555 13.9889 67.7727 13.0371 67.7727 12.0135C67.7727 10.9898 67.9555 10.0384 68.3214 9.15826C68.6876 8.27843 69.1946 7.51947 69.8438 6.88193C70.4934 6.24467 71.2525 5.75068 72.1209 5.40052C72.9896 5.05036 73.8994 4.875 74.8503 4.875C75.7463 4.875 76.611 5.04123 77.4431 5.37341C78.2755 5.70587 79.0112 6.1769 79.6514 6.78761C80.2914 7.39832 80.7992 8.1299 81.1739 8.98318C81.5488 9.8359 81.7544 10.7567 81.7913 11.7441V12.9567Z" fill="#00466E"/>
<path fill-rule="evenodd" clip-rule="evenodd" d="M66.6769 18.7212H62.3699L59.3799 14.465L56.417 18.7212H52.1096L56.7186 12.1752L52.1096 5.25214H56.417L59.3799 9.77796L62.3699 5.25214H66.6769L62.0679 12.1752L66.6769 18.7212Z" fill="#00466E"/>
<path fill-rule="evenodd" clip-rule="evenodd" d="M41.8792 16.0495C39.743 16.0495 38.0113 14.2365 38.0113 12C38.0113 9.76348 39.743 7.95044 41.8792 7.95044C43.2656 7.95044 44.4782 8.71632 45.1607 9.86361V13.5851C45.1607 13.756 45.1712 13.9245 45.1869 14.0913C44.5095 15.2635 43.2834 16.0495 41.8792 16.0495ZM48.8687 13.5852V5.27928H45.1608V5.95305C44.0915 5.27402 42.8336 4.87518 41.4816 4.87518C37.6254 4.87518 34.5 8.06508 34.5 12.0001C34.5 15.9351 37.6254 19.125 41.4816 19.125C43.4228 19.125 45.1782 18.3152 46.4435 17.01C47.4361 18.16 48.9149 18.893 50.5666 18.893V15.2522C49.6306 15.2522 48.8687 14.5041 48.8687 13.5852Z" fill="#00466E"/>
<path fill-rule="evenodd" clip-rule="evenodd" d="M0 3.35723L3.26045 6.56247C3.52542 6.29285 3.97965 5.95793 4.21244 5.80446C5.52558 4.93342 7.05871 4.50997 8.6487 4.58057C12.3806 4.74538 15.4861 7.79331 15.7189 11.5189L20.2816 11.2338C20.0981 8.29815 18.8265 5.53265 16.7009 3.44668C14.5762 1.36181 11.7881 0.141943 8.8504 0.0122554C8.66772 0.00402414 8.48541 0 8.30364 0C5.93574 0.000182916 3.66019 0.683739 1.69862 1.985C1.59823 2.05067 0.697623 2.64679 0 3.35723Z" fill="url(#paint0_linear_2514_376)"/>
<path fill-rule="evenodd" clip-rule="evenodd" d="M15.7189 11.5189C15.8488 13.5981 15.1395 15.5745 13.7217 17.084C12.3029 18.5948 10.3804 19.4271 8.30896 19.4271V24C11.6071 24 14.7948 22.6204 17.0537 20.2151C19.3446 17.7759 20.4909 14.5862 20.2816 11.2338L15.7189 11.5189Z" fill="url(#paint1_linear_2514_376)"/>
<path fill-rule="evenodd" clip-rule="evenodd" d="M8.19962 24H8.34496V19.4271H8.19962C6.67801 19.4271 5.34658 18.3565 5.10264 16.9371C4.92673 15.9148 5.35573 15.118 5.62728 14.7341L1.89467 12.0939C0.720324 13.7547 0.259691 15.75 0.596891 17.7123C1.22375 21.3556 4.42111 24 8.19962 24Z" fill="url(#paint2_linear_2514_376)"/>
<path fill-rule="evenodd" clip-rule="evenodd" d="M5.598 14.7743C6.99471 12.887 9.13988 11.8045 11.4835 11.8045C11.7322 11.8045 11.9825 11.8169 12.2158 11.8403C15.7478 12.214 19.0191 13.824 21.4268 16.3737L24.75 13.2338C21.5936 9.89098 17.3128 7.78123 12.6849 7.29156C12.2884 7.25187 11.8843 7.23157 11.4835 7.23157C7.73183 7.23157 4.12906 9.07444 1.89465 12.0938L5.598 14.7743Z" fill="url(#paint3_linear_2514_376)"/>
<defs>
<linearGradient id="paint0_linear_2514_376" x1="2.37235" y1="4.42174" x2="4.33788" y2="13.5093" gradientUnits="userSpaceOnUse">
<stop stop-color="#88E766"/>
<stop offset="1" stop-color="#63DA90"/>
</linearGradient>
<linearGradient id="paint1_linear_2514_376" x1="15.4923" y1="8.34149" x2="5.92721" y2="16.1201" gradientUnits="userSpaceOnUse">
<stop stop-color="#63DA90"/>
<stop offset="1" stop-color="#47D0AF"/>
</linearGradient>
<linearGradient id="paint2_linear_2514_376" x1="8.20416" y1="17.9584" x2="4.01197" y2="15.646" gradientUnits="userSpaceOnUse">
<stop stop-color="#47D0AF"/>
<stop offset="1" stop-color="#1FC2DD"/>
</linearGradient>
<linearGradient id="paint3_linear_2514_376" x1="4.71073" y1="17.304" x2="18.9628" y2="23.7688" gradientUnits="userSpaceOnUse">
<stop stop-color="#1FC2DD"/>
<stop offset="1" stop-color="#00B7FF"/>
</linearGradient>
</defs>
</svg>
